<svg width="11" height="11" viewBox="0 0 11 11" fill="none" xmlns="http://www.w3.org/2000/svg">
<path d="M5.48529 3.60958L2.68311 0.725927C2.45107 0.487146 2.08699 0.497055 1.85649 0.734256L0.628804 1.99763C0.401776 2.23126 0.394681 2.61568 0.620711 2.84828L3.42289 5.73193L0.620711 8.61558C0.388675 8.85437 0.398304 9.22903 0.628804 9.46624L1.85649 10.7296C2.08352 10.9632 2.45708 10.9705 2.68311 10.7379L5.48529 7.85429L8.28747 10.7379C8.51951 10.9767 8.88359 10.9668 9.11409 10.7296L10.3418 9.46624C10.5688 9.23261 10.5759 8.84819 10.3499 8.61558L7.54769 5.73193L10.3499 2.84828C10.5819 2.6095 10.5723 2.23483 10.3418 1.99763L9.11409 0.734257C8.88707 0.500628 8.51351 0.493326 8.28747 0.725928L5.48529 3.60958Z" fill="#A8A8A8"/>
</svg>
