<svg width="22" height="12" viewBox="0 0 22 12" fill="none" xmlns="http://www.w3.org/2000/svg">
<path d="M20.9774 0.000278144C20.7139 0.00650723 20.4636 0.116598 20.2809 0.306568L10.9978 9.58889L1.7148 0.306568C1.62171 0.210883 1.51038 0.134825 1.3874 0.082888C1.26442 0.0309508 1.13227 0.0041877 0.998769 0.00417992C0.800049 0.00423215 0.605859 0.0635428 0.441025 0.174529C0.276192 0.285516 0.148206 0.443135 0.0734285 0.627235C-0.00134855 0.811336 -0.0195188 1.01355 0.0212416 1.20803C0.0620019 1.40251 0.15984 1.58042 0.302249 1.71901L10.2916 11.7076C10.4789 11.8948 10.733 12 10.9978 12C11.2627 12 11.5168 11.8948 11.7041 11.7076L21.6934 1.71901C21.8385 1.57952 21.9381 1.39947 21.9791 1.20244C22.0201 1.00541 22.0006 0.80059 21.9232 0.614816C21.8458 0.429042 21.7141 0.270973 21.5453 0.161317C21.3766 0.0516607 21.1786 -0.00446966 20.9774 0.000278144Z" fill="white"/>
</svg>
