<svg width="15" height="20" viewBox="0 0 15 20" fill="none" xmlns="http://www.w3.org/2000/svg">
<path d="M7.5 10C8.88071 10 10 8.88071 10 7.5C10 6.11929 8.88071 5 7.5 5C6.11929 5 5 6.11929 5 7.5C5 8.88071 6.11929 10 7.5 10Z" fill="white"/>
<path fill-rule="evenodd" clip-rule="evenodd" d="M15 7.5C15 9.17397 14.4516 10.7199 13.5246 11.9678L7.49992 20L1.47538 11.9678C0.548415 10.7199 0 9.17397 0 7.5C0 3.35786 3.35786 0 7.5 0C11.6421 0 15 3.35786 15 7.5ZM12.5 7.5C12.5 8.61699 12.1367 9.64189 11.5209 10.4727L7.49995 15.8335L3.47917 10.4728C2.86335 9.64198 2.5 8.61704 2.5 7.5C2.5 4.73858 4.73858 2.5 7.5 2.5C10.2614 2.5 12.5 4.73858 12.5 7.5Z" fill="white"/>
</svg>
