<svg width="16" height="16" viewBox="0 0 16 16" fill="none" xmlns="http://www.w3.org/2000/svg">
<path d="M9.33333 5.33333C9.33333 4.59695 8.73638 4 8 4C7.26362 4 6.66667 4.59695 6.66667 5.33333V6.66667H5.33333C4.59695 6.66667 4 7.26362 4 8C4 8.73638 4.59695 9.33333 5.33333 9.33333H6.66667V10.6667C6.66667 11.403 7.26362 12 8 12C8.73638 12 9.33333 11.403 9.33333 10.6667V9.33333H10.6667C11.403 9.33333 12 8.73638 12 8C12 7.26362 11.403 6.66667 10.6667 6.66667H9.33333V5.33333Z" fill="white"/>
<path fill-rule="evenodd" clip-rule="evenodd" d="M0 2.66667C0 1.19391 1.19391 0 2.66667 0H13.3333C14.8061 0 16 1.19391 16 2.66667V13.3333C16 14.8061 14.8061 16 13.3333 16H2.66667C1.19391 16 0 14.8061 0 13.3333V2.66667ZM2.66667 2.66667H13.3333V13.3333H2.66667V2.66667Z" fill="white"/>
</svg>
