<svg width="16" height="14" viewBox="0 0 16 14" fill="none" xmlns="http://www.w3.org/2000/svg">
<path fill-rule="evenodd" clip-rule="evenodd" d="M9.33795 4.57143C9.80862 5.90308 11.0786 6.85714 12.5714 6.85714C14.465 6.85714 16 5.32212 16 3.42857C16 1.53502 14.465 0 12.5714 0C11.0786 0 9.80862 0.954066 9.33795 2.28571H1.14286C0.511675 2.28571 0 2.79739 0 3.42857C0 4.05975 0.511675 4.57143 1.14286 4.57143H9.33795ZM13.7143 3.42857C13.7143 4.05975 13.2026 4.57143 12.5714 4.57143C11.9402 4.57143 11.4286 4.05975 11.4286 3.42857C11.4286 2.79739 11.9402 2.28571 12.5714 2.28571C13.2026 2.28571 13.7143 2.79739 13.7143 3.42857Z" fill="white"/>
<path fill-rule="evenodd" clip-rule="evenodd" d="M6.66205 9.14286C6.19138 7.81121 4.92139 6.85714 3.42857 6.85714C1.53502 6.85714 0 8.39217 0 10.2857C0 12.1793 1.53502 13.7143 3.42857 13.7143C4.92139 13.7143 6.19138 12.7602 6.66205 11.4286H14.8571C15.4883 11.4286 16 10.9169 16 10.2857C16 9.65453 15.4883 9.14286 14.8571 9.14286H6.66205ZM3.42857 11.4286C2.79739 11.4286 2.28571 10.9169 2.28571 10.2857C2.28571 9.65453 2.79739 9.14286 3.42857 9.14286C4.05975 9.14286 4.57143 9.65453 4.57143 10.2857C4.57143 10.9169 4.05975 11.4286 3.42857 11.4286Z" fill="white"/>
</svg>
