<svg width="18" height="24" viewBox="0 0 18 24" fill="none" xmlns="http://www.w3.org/2000/svg">
<path d="M4.5 12C4.5 11.1716 5.17157 10.5 6 10.5H12C12.8284 10.5 13.5 11.1716 13.5 12C13.5 12.8284 12.8284 13.5 12 13.5H6C5.17157 13.5 4.5 12.8284 4.5 12Z" fill="#00A3FF"/>
<path d="M6 15C5.17157 15 4.5 15.6716 4.5 16.5C4.5 17.3284 5.17157 18 6 18H12C12.8284 18 13.5 17.3284 13.5 16.5C13.5 15.6716 12.8284 15 12 15H6Z" fill="#00A3FF"/>
<path fill-rule="evenodd" clip-rule="evenodd" d="M9 0C9.82843 0 10.5 0.671573 10.5 1.5H12.5C13.0523 1.5 13.5 1.94772 13.5 2.5V3H16.5C17.3284 3 18 3.67157 18 4.5V22.5C18 23.3284 17.3284 24 16.5 24H1.5C0.671573 24 0 23.3284 0 22.5V4.5C0 3.67157 0.671573 3 1.5 3H4.5V2.5C4.5 1.94772 4.94772 1.5 5.5 1.5H7.5C7.5 0.671573 8.17157 0 9 0ZM4.5 6V7.5H13.5V6H15V21H3V6H4.5ZM9 6C9.82843 6 10.5 5.32843 10.5 4.5C10.5 3.67157 9.82843 3 9 3C8.17157 3 7.5 3.67157 7.5 4.5C7.5 5.32843 8.17157 6 9 6Z" fill="#00A3FF"/>
</svg>
